/* XPM */
static char * shade_toggled_active_xpm[] = {
"24 26 8 1",
" 	c None",
".	c #313A41",
"+	c #343B41",
"@	c #F4F8FA",
"#	c #363C41",
"$	c #3C4042",
"%	c #383D42",
"&	c #333B41",
"........................",
"........................",
"........................",
"........................",
"........................",
"........................",
"........................",
"........................",
"............+...........",
"...........@@#..........",
"...........@@$..........",
"...........@@%&.........",
".......@@@.@@.@@@.......",
"........@@@@@@@@........",
".........@@@@@@.........",
"..........@@@@..........",
"...........@@...........",
"........................",
"........................",
"........................",
"........................",
"........................",
"........................",
"........................",
"........................",
"........................"};
