/* XPM */
static char * shade_inactive_xpm[] = {
"24 26 8 1",
" 	c None",
".	c #313A41",
"+	c #BDC3C5",
"@	c #383D42",
"#	c #333B41",
"$	c #3C4042",
"%	c #363C41",
"&	c #343B41",
"........................",
"........................",
"........................",
"........................",
"........................",
"........................",
"........................",
"........................",
"........................",
"...........++...........",
"..........++++..........",
".........++++++.........",
"........++++++++........",
".......+++.++.+++.......",
"...........++@#.........",
"...........++$..........",
"...........++%..........",
"............&...........",
"........................",
"........................",
"........................",
"........................",
"........................",
"........................",
"........................",
"........................"};
